<?xml version="1.0" encoding="iso-8859-1"?>
<!-- Generator: Adobe Illustrator 19.0.0, SVG Export Plug-In . SVG Version: 6.00 Build 0)  -->
<svg version="1.1" id="Layer_1" xmlns="http://www.w3.org/2000/svg" xmlns:xlink="http://www.w3.org/1999/xlink" x="0px" y="0px"
	 viewBox="0 0 502 502" style="enable-background:new 0 0 502 502;" xml:space="preserve">
<g>
	<g>
		<g>
			<path d="M492,155.266h-35v-26.595c0-5.523-4.477-10-10-10h-67.041c-5.523,0-10,4.477-10,10v93.51H132v-93.51
				c0-5.523-4.477-10-10-10H54.959c-5.523,0-10,4.477-10,10v26.594H10c-5.523,0-10,4.477-10,10v171.471c0,5.523,4.477,10,10,10
				h34.959v26.594c0,5.523,4.477,10,10,10H122c5.523,0,10-4.477,10-10v-93.51h237.959v93.51c0,5.523,4.477,10,10,10H447
				c5.523,0,10-4.477,10-10v-26.594h35c5.523,0,10-4.477,10-10v-171.47C502,159.743,497.523,155.266,492,155.266z M44.959,326.736
				H20v-0.001v-151.47h24.959V326.736z M112,232.181v37.64v93.51H64.959v-26.594V165.266v-26.595H112V232.181z M369.959,259.821H132
				v-17.64h237.959V259.821z M437,363.33h-47.041v-92.698c0.022-0.269,0.041-0.538,0.041-0.812v-37.64
				c0-0.274-0.019-0.544-0.041-0.812v-92.698H437V363.33z M482,326.736h-24.959v-151.47H482V326.736z"/>
			<path d="M87,352.001c5.523,0,10-4.477,10-10v-104c0-5.523-4.477-10-10-10s-10,4.477-10,10v104
				C77,347.524,81.477,352.001,87,352.001z"/>
			<path d="M87,213.001c5.523,0,10-4.477,10-10v-24c0-5.523-4.477-10-10-10s-10,4.477-10,10v24
				C77,208.524,81.477,213.001,87,213.001z"/>
		</g>
	</g>
</g>
<g>
</g>
<g>
</g>
<g>
</g>
<g>
</g>
<g>
</g>
<g>
</g>
<g>
</g>
<g>
</g>
<g>
</g>
<g>
</g>
<g>
</g>
<g>
</g>
<g>
</g>
<g>
</g>
<g>
</g>
</svg>
